<svg width="24" height="24" viewBox="0 0 24 24" fill="none" xmlns="http://www.w3.org/2000/svg">
<path d="M5.05263 9.33333C2.26105 9.33333 0 11.72 0 14.6667C0 17.6133 2.26105 20 5.05263 20C7.84421 20 10.1053 17.6133 10.1053 14.6667C10.1053 11.72 7.84421 9.33333 5.05263 9.33333ZM5.05263 17.3333C3.66316 17.3333 2.52632 16.1333 2.52632 14.6667C2.52632 13.2 3.66316 12 5.05263 12C6.4421 12 7.57895 13.2 7.57895 14.6667C7.57895 16.1333 6.4421 17.3333 5.05263 17.3333ZM15.1705 16C13.0863 16 11.3811 17.8 11.3811 20C11.3811 22.2 13.0863 24 15.1705 24C17.2547 24 18.96 22.2 18.96 20C18.96 17.8 17.2547 16 15.1705 16ZM15.1705 21.3333C14.4758 21.3333 13.9074 20.7333 13.9074 20C13.9074 19.2667 14.4758 18.6667 15.1705 18.6667C15.8653 18.6667 16.4337 19.2667 16.4337 20C16.4337 20.7333 15.8653 21.3333 15.1705 21.3333ZM17.0526 0C13.2253 0 10.1053 3.29333 10.1053 7.33333C10.1053 11.3733 13.2253 14.6667 17.0526 14.6667C20.88 14.6667 24 11.3733 24 7.33333C24 3.29333 20.88 0 17.0526 0ZM17.0526 12C14.6147 12 12.6316 9.90667 12.6316 7.33333C12.6316 4.76 14.6147 2.66667 17.0526 2.66667C19.4905 2.66667 21.4737 4.76 21.4737 7.33333C21.4737 9.90667 19.4905 12 17.0526 12Z" fill="black"/>
</svg>
