<svg width="16" height="16" viewBox="0 0 16 16" fill="none" xmlns="http://www.w3.org/2000/svg">
<g clip-path="url(#clip0_233_3270)">
<path d="M15.024 12.4C13.048 12.4 9.768 11.336 8.08 8.056C6.216 4.448 7.68 1.272 8.504 0C4.216 0.152 0.783997 3.664 0.783997 7.992C0.783997 8.104 0.799997 8.216 0.799997 8.328C1.288 8.12 1.824 7.992 2.384 7.992C2.384 5.52 3.768 3.376 5.824 2.312C5.424 4.064 5.392 6.344 6.656 8.792C7.912 11.224 10 12.752 12.096 13.48C11.112 14.072 9.976 14.4 8.792 14.4C8.392 14.4 7.992 14.36 7.608 14.288C7.312 14.848 6.856 15.304 6.296 15.6C7.08 15.856 7.92 16 8.784 16C11.584 16 14.048 14.56 15.48 12.384C15.344 12.392 15.184 12.4 15.024 12.4Z" fill="#2B3674"/>
<path d="M4.8 11.192H4.656C4.32 10.264 3.44 9.59204 2.4 9.59204C1.072 9.59204 0 10.664 0 11.992C0 13.32 1.072 14.392 2.4 14.392C2.896 14.392 4.392 14.392 4.8 14.392C5.68 14.392 6.4 13.672 6.4 12.792C6.4 11.912 5.68 11.192 4.8 11.192Z" fill="#2B3674"/>
</g>
<defs>
<clipPath id="clip0_233_3270">
<rect width="16" height="16" fill="white"/>
</clipPath>
</defs>
</svg>
